<svg width="390" height="387" viewBox="0 0 390 387" fill="none" xmlns="http://www.w3.org/2000/svg">
<rect y="95" width="390" height="291.281" fill="black"/>
<path fill-rule="evenodd" clip-rule="evenodd" d="M60.4037 307.306C71.8599 307.306 78.6361 315.642 78.6361 325.344C78.6361 335.045 71.8599 343.381 60.4037 343.381C48.9474 343.381 42.1712 335.045 42.1712 325.344C42.1712 315.642 48.9474 307.306 60.4037 307.306ZM60.4037 314.375C53.8712 314.375 50.3609 319.396 50.4097 325.344C50.3609 331.291 53.8712 336.312 60.4037 336.312C66.8874 336.312 70.3977 331.291 70.3977 325.344C70.3977 319.396 66.8874 314.375 60.4037 314.375Z" fill="white"/>
<path fill-rule="evenodd" clip-rule="evenodd" d="M140.146 307.306C151.602 307.306 158.379 315.642 158.379 325.344C158.379 335.045 151.602 343.381 140.146 343.381C128.69 343.381 121.914 335.045 121.914 325.344C121.914 315.642 128.69 307.306 140.146 307.306ZM140.146 314.375C133.614 314.375 130.103 319.396 130.152 325.344C130.103 331.291 133.614 336.312 140.146 336.312C146.63 336.312 150.14 331.291 150.14 325.344C150.14 319.396 146.63 314.375 140.146 314.375Z" fill="white"/>
<path d="M41.4845 315.301H32.0755V342.406H24.2268V315.301H14.8672V308.281H41.4845V315.301Z" fill="white"/>
<path d="M107.152 332.363L114.221 308.281H122.703L111.247 342.406H103.057L91.6008 308.281H100.083L107.152 332.363Z" fill="white"/>
<path d="M185.64 315.301H176.231V342.406H168.382V315.301H159.022V308.281H185.64V315.301Z" fill="white"/>
<path d="M210.047 314.619H197.08V322.37H210.047V328.561H197.08V336.068H210.047V342.406H189.182V308.281H210.047V314.619Z" fill="white"/>
<path d="M133.598 248.806C143.591 248.806 150.075 254.12 151.001 262.164H142.616C141.739 258.313 138.521 255.875 133.647 255.875C127.212 255.875 123.506 260.165 123.506 266.844C123.506 273.522 127.212 277.812 133.647 277.812C138.521 277.812 141.739 275.375 142.616 271.523H151.001C150.075 279.567 143.591 284.881 133.598 284.881C122.385 284.881 115.268 277.325 115.268 266.844C115.268 256.362 122.385 248.806 133.598 248.806Z" fill="white"/>
<path d="M253.191 248.806C262.356 248.807 268.742 253.73 269.327 260.36H260.698C260.064 257.533 257.383 255.436 253.239 255.436C246.268 255.436 242.904 260.409 242.953 266.844C242.904 273.23 246.805 278.008 252.947 278.008C257.627 278.008 260.698 276.009 261.868 271.914H255.774V265.966H273.227V271.914H270.01C268.255 280.055 262.209 284.881 252.752 284.881C241.832 284.881 234.666 277.276 234.715 266.99C234.715 257.045 241.394 248.806 253.191 248.806Z" fill="white"/>
<path fill-rule="evenodd" clip-rule="evenodd" d="M294.318 248.806C305.774 248.806 312.55 257.142 312.55 266.844C312.55 276.545 305.774 284.881 294.318 284.881C282.862 284.881 276.086 276.545 276.086 266.844C276.086 257.142 282.862 248.806 294.318 248.806ZM294.318 255.875C287.785 255.875 284.275 260.896 284.324 266.844C284.275 272.791 287.785 277.812 294.318 277.812C300.802 277.812 304.312 272.791 304.312 266.844C304.312 260.896 300.802 255.875 294.318 255.875Z" fill="white"/>
<path fill-rule="evenodd" clip-rule="evenodd" d="M101.6 283.906H93.2635L92.0936 279.763H80.0037L78.8337 283.906H70.4971L82.0508 249.781H89.9971L101.6 283.906ZM81.7586 273.571H90.3386L86.0486 258.41L81.7586 273.571Z" fill="white"/>
<path fill-rule="evenodd" clip-rule="evenodd" d="M182.294 283.906H173.958L172.788 279.763H160.698L159.528 283.906H151.192L162.745 249.781H170.692L182.294 283.906ZM162.453 273.571H171.033L166.743 258.41L162.453 273.571Z" fill="white"/>
<path d="M206.082 256.801H196.673V283.906H188.825V256.801H179.465V249.781H206.082V256.801Z" fill="white"/>
<path d="M230.49 256.119H217.522V263.87H230.49V270.061H217.522V277.568H230.49V283.906H209.625V249.781H230.49V256.119Z" fill="white"/>
<path fill-rule="evenodd" clip-rule="evenodd" d="M331.65 249.781C338.767 249.781 343.886 254.949 343.886 262.115C343.886 267.087 341.4 271.134 337.5 273.084L343.496 283.906H334.526L329.164 274.449H325.02V283.906H317.123V249.781H331.65ZM325.02 268.014H330.431C333.6 268.014 335.891 265.527 335.891 262.115C335.891 258.703 333.6 256.216 330.431 256.216H325.02V268.014Z" fill="white"/>
<path d="M359.833 263.236L366.122 249.781H374.848L357.932 283.906H349.157L355.494 271.036L343.404 249.781H352.569L359.833 263.236Z" fill="white"/>
<path d="M34.2696 190.306C44.2633 190.306 50.7468 195.62 51.6731 203.664H43.2882C42.4107 199.813 39.1933 197.375 34.3184 197.375C27.8834 197.375 24.178 201.665 24.178 208.344C24.178 215.022 27.8834 219.312 34.3184 219.312C39.1933 219.312 42.4107 216.875 43.2882 213.023H51.6731C50.7468 221.067 44.2633 226.381 34.2696 226.381C23.0571 226.381 15.9395 218.825 15.9395 208.344C15.9395 197.862 23.0571 190.306 34.2696 190.306Z" fill="white"/>
<path fill-rule="evenodd" clip-rule="evenodd" d="M106.773 190.306C118.23 190.306 125.006 198.642 125.006 208.344C125.006 218.045 118.23 226.381 106.773 226.381C95.3171 226.381 88.5409 218.045 88.5409 208.344C88.5409 198.642 95.3171 190.306 106.773 190.306ZM106.773 197.375C100.241 197.375 96.7306 202.396 96.7793 208.344C96.7306 214.291 100.241 219.312 106.773 219.312C113.257 219.312 116.767 214.291 116.767 208.344C116.767 202.396 113.257 197.375 106.773 197.375Z" fill="white"/>
<path fill-rule="evenodd" clip-rule="evenodd" d="M146.049 190.306C157.506 190.306 164.282 198.642 164.282 208.344C164.282 218.045 157.506 226.381 146.049 226.381C134.593 226.381 127.817 218.045 127.817 208.344C127.817 198.642 134.593 190.306 146.049 190.306ZM146.049 197.375C139.517 197.375 136.007 202.396 136.055 208.344C136.007 214.291 139.517 219.312 146.049 219.312C152.533 219.312 156.043 214.291 156.043 208.344C156.043 202.396 152.533 197.375 146.049 197.375Z" fill="white"/>
<path d="M179.009 190.306C186.516 190.306 191.488 194.548 191.488 201.129H183.591C183.591 197.96 181.934 196.205 178.862 196.205C176.279 196.205 174.768 197.521 174.767 199.568C174.767 201.47 176.084 202.64 179.447 204.005L185.102 206.247C189.831 208.1 191.976 211.269 191.976 215.851C191.976 222.237 187.003 226.381 179.447 226.381C171.062 226.381 166.041 221.896 166.041 214.242H173.938C173.938 217.947 176.035 220.141 179.496 220.141C182.421 220.141 184.079 218.776 184.079 216.388C184.079 214.291 183.006 213.219 179.935 212L173.792 209.611C169.21 207.905 166.87 204.736 166.87 200.3C166.87 194.304 171.599 190.306 179.009 190.306Z" fill="white"/>
<path d="M64.2075 205.077H76.0046V191.281H83.9021V225.406H76.0046V211.854H64.2075V225.406H56.31V191.281H64.2075V205.077Z" fill="white"/>
<path d="M217.426 197.619H204.459V205.37H217.426V211.561H204.459V219.068H217.426V225.406H196.562V191.281H217.426V197.619Z" fill="white"/>
<path fill-rule="evenodd" clip-rule="evenodd" d="M60.4037 307.306C71.8599 307.306 78.6361 315.642 78.6361 325.344C78.6361 335.045 71.8599 343.381 60.4037 343.381C48.9474 343.381 42.1712 335.045 42.1712 325.344C42.1712 315.642 48.9474 307.306 60.4037 307.306ZM60.4037 314.375C53.8712 314.375 50.3609 319.396 50.4097 325.344C50.3609 331.291 53.8712 336.312 60.4037 336.312C66.8874 336.312 70.3977 331.291 70.3977 325.344C70.3977 319.396 66.8874 314.375 60.4037 314.375Z" fill="white"/>
<path fill-rule="evenodd" clip-rule="evenodd" d="M140.146 307.306C151.602 307.306 158.379 315.642 158.379 325.344C158.379 335.045 151.602 343.381 140.146 343.381C128.69 343.381 121.914 335.045 121.914 325.344C121.914 315.642 128.69 307.306 140.146 307.306ZM140.146 314.375C133.614 314.375 130.103 319.396 130.152 325.344C130.103 331.291 133.614 336.312 140.146 336.312C146.63 336.312 150.14 331.291 150.14 325.344C150.14 319.396 146.63 314.375 140.146 314.375Z" fill="white"/>
<path d="M41.4845 315.301H32.0755V342.406H24.2268V315.301H14.8672V308.281H41.4845V315.301Z" fill="white"/>
<path d="M107.152 332.363L114.221 308.281H122.703L111.247 342.406H103.057L91.6008 308.281H100.083L107.152 332.363Z" fill="white"/>
<path d="M185.64 315.301H176.231V342.406H168.382V315.301H159.022V308.281H185.64V315.301Z" fill="white"/>
<path d="M210.047 314.619H197.08V322.37H210.047V328.561H197.08V336.068H210.047V342.406H189.182V308.281H210.047V314.619Z" fill="white"/>
<path d="M133.598 248.806C143.591 248.806 150.075 254.12 151.001 262.164H142.616C141.739 258.313 138.521 255.875 133.647 255.875C127.212 255.875 123.506 260.165 123.506 266.844C123.506 273.522 127.212 277.812 133.647 277.812C138.521 277.812 141.739 275.375 142.616 271.523H151.001C150.075 279.567 143.591 284.881 133.598 284.881C122.385 284.881 115.268 277.325 115.268 266.844C115.268 256.362 122.385 248.806 133.598 248.806Z" fill="white"/>
<path d="M253.191 248.806C262.356 248.807 268.742 253.73 269.327 260.36H260.698C260.064 257.533 257.383 255.436 253.239 255.436C246.268 255.436 242.904 260.409 242.953 266.844C242.904 273.23 246.805 278.008 252.947 278.008C257.627 278.008 260.698 276.009 261.868 271.914H255.774V265.966H273.227V271.914H270.01C268.255 280.055 262.209 284.881 252.752 284.881C241.832 284.881 234.666 277.276 234.715 266.99C234.715 257.045 241.394 248.806 253.191 248.806Z" fill="white"/>
<path fill-rule="evenodd" clip-rule="evenodd" d="M294.318 248.806C305.774 248.806 312.55 257.142 312.55 266.844C312.55 276.545 305.774 284.881 294.318 284.881C282.862 284.881 276.086 276.545 276.086 266.844C276.086 257.142 282.862 248.806 294.318 248.806ZM294.318 255.875C287.785 255.875 284.275 260.896 284.324 266.844C284.275 272.791 287.785 277.812 294.318 277.812C300.802 277.812 304.312 272.791 304.312 266.844C304.312 260.896 300.802 255.875 294.318 255.875Z" fill="white"/>
<path fill-rule="evenodd" clip-rule="evenodd" d="M101.6 283.906H93.2635L92.0936 279.763H80.0037L78.8337 283.906H70.4971L82.0508 249.781H89.9971L101.6 283.906ZM81.7586 273.571H90.3386L86.0486 258.41L81.7586 273.571Z" fill="white"/>
<path fill-rule="evenodd" clip-rule="evenodd" d="M182.294 283.906H173.958L172.788 279.763H160.698L159.528 283.906H151.192L162.745 249.781H170.692L182.294 283.906ZM162.453 273.571H171.033L166.743 258.41L162.453 273.571Z" fill="white"/>
<path d="M206.082 256.801H196.673V283.906H188.825V256.801H179.465V249.781H206.082V256.801Z" fill="white"/>
<path d="M230.49 256.119H217.522V263.87H230.49V270.061H217.522V277.568H230.49V283.906H209.625V249.781H230.49V256.119Z" fill="white"/>
<path fill-rule="evenodd" clip-rule="evenodd" d="M331.65 249.781C338.767 249.781 343.886 254.949 343.886 262.115C343.886 267.087 341.4 271.134 337.5 273.084L343.496 283.906H334.526L329.164 274.449H325.02V283.906H317.123V249.781H331.65ZM325.02 268.014H330.431C333.6 268.014 335.891 265.527 335.891 262.115C335.891 258.703 333.6 256.216 330.431 256.216H325.02V268.014Z" fill="white"/>
<path d="M359.833 263.236L366.122 249.781H374.848L357.932 283.906H349.157L355.494 271.036L343.404 249.781H352.569L359.833 263.236Z" fill="white"/>
<path d="M34.2696 190.306C44.2633 190.306 50.7468 195.62 51.6731 203.664H43.2882C42.4107 199.813 39.1933 197.375 34.3184 197.375C27.8834 197.375 24.178 201.665 24.178 208.344C24.178 215.022 27.8834 219.312 34.3184 219.312C39.1933 219.312 42.4107 216.875 43.2882 213.023H51.6731C50.7468 221.067 44.2633 226.381 34.2696 226.381C23.0571 226.381 15.9395 218.825 15.9395 208.344C15.9395 197.862 23.0571 190.306 34.2696 190.306Z" fill="white"/>
<path fill-rule="evenodd" clip-rule="evenodd" d="M106.773 190.306C118.23 190.306 125.006 198.642 125.006 208.344C125.006 218.045 118.23 226.381 106.773 226.381C95.3171 226.381 88.5409 218.045 88.5409 208.344C88.5409 198.642 95.3171 190.306 106.773 190.306ZM106.773 197.375C100.241 197.375 96.7306 202.396 96.7793 208.344C96.7306 214.291 100.241 219.312 106.773 219.312C113.257 219.312 116.767 214.291 116.767 208.344C116.767 202.396 113.257 197.375 106.773 197.375Z" fill="white"/>
<path fill-rule="evenodd" clip-rule="evenodd" d="M146.049 190.306C157.506 190.306 164.282 198.642 164.282 208.344C164.282 218.045 157.506 226.381 146.049 226.381C134.593 226.381 127.817 218.045 127.817 208.344C127.817 198.642 134.593 190.306 146.049 190.306ZM146.049 197.375C139.517 197.375 136.007 202.396 136.055 208.344C136.007 214.291 139.517 219.312 146.049 219.312C152.533 219.312 156.043 214.291 156.043 208.344C156.043 202.396 152.533 197.375 146.049 197.375Z" fill="white"/>
<path d="M179.009 190.306C186.516 190.306 191.488 194.548 191.488 201.129H183.591C183.591 197.96 181.934 196.205 178.862 196.205C176.279 196.205 174.768 197.521 174.767 199.568C174.767 201.47 176.084 202.64 179.447 204.005L185.102 206.247C189.831 208.1 191.976 211.269 191.976 215.851C191.976 222.237 187.003 226.381 179.447 226.381C171.062 226.381 166.041 221.896 166.041 214.242H173.938C173.938 217.947 176.035 220.141 179.496 220.141C182.421 220.141 184.079 218.776 184.079 216.388C184.079 214.291 183.006 213.219 179.935 212L173.792 209.611C169.21 207.905 166.87 204.736 166.87 200.3C166.87 194.304 171.599 190.306 179.009 190.306Z" fill="white"/>
<path d="M64.2075 205.077H76.0046V191.281H83.9021V225.406H76.0046V211.854H64.2075V225.406H56.31V191.281H64.2075V205.077Z" fill="white"/>
<path d="M217.426 197.619H204.459V205.37H217.426V211.561H204.459V219.068H217.426V225.406H196.562V191.281H217.426V197.619Z" fill="white"/>
<path d="M390 177.875L308.953 385.672H390V386.281H0V242.469L92.3203 220.836L0 185.188V95H390V177.875Z" fill="#00A468"/>
<path d="M390 385.672H308.953L354.408 269.127L355.494 271.036L349.157 283.906H357.932L374.848 249.781H366.122L359.833 263.236L358.018 259.874L390 177.875V385.672ZM60.4033 307.307C71.8595 307.307 78.6357 315.642 78.6357 325.344C78.6357 335.045 71.8595 343.381 60.4033 343.381C48.9473 343.381 42.1709 335.045 42.1709 325.344C42.1709 315.643 48.9473 307.307 60.4033 307.307ZM140.146 307.307C151.602 307.307 158.379 315.643 158.379 325.344C158.379 335.045 151.602 343.381 140.146 343.381C128.69 343.381 121.914 335.045 121.914 325.344C121.914 315.642 128.69 307.307 140.146 307.307ZM41.4844 315.301H32.0752V342.406H24.2266V315.301H14.8672V308.281H41.4844V315.301ZM107.152 332.363L114.221 308.281H122.703L111.247 342.406H103.057L91.6006 308.281H100.083L107.152 332.363ZM185.64 315.301H176.23V342.406H168.382V315.301H159.022V308.281H185.64V315.301ZM210.047 314.619H197.08V322.37H210.047V328.561H197.08V336.068H210.047V342.406H189.183V308.281H210.047V314.619ZM60.4033 314.375C53.8711 314.375 50.3614 319.396 50.4102 325.344C50.3614 331.291 53.8711 336.312 60.4033 336.312C66.887 336.312 70.3974 331.291 70.3975 325.344C70.3975 319.396 66.887 314.375 60.4033 314.375ZM140.146 314.375C133.614 314.375 130.104 319.396 130.152 325.344C130.104 331.291 133.614 336.312 140.146 336.312C146.63 336.312 150.14 331.291 150.14 325.344C150.14 319.396 146.63 314.375 140.146 314.375ZM133.598 248.807C143.591 248.807 150.075 254.12 151.001 262.164H142.616C141.739 258.313 138.521 255.875 133.646 255.875C127.212 255.875 123.506 260.165 123.506 266.844C123.506 273.522 127.212 277.812 133.646 277.812C138.521 277.812 141.739 275.375 142.616 271.523H151.001C150.075 279.567 143.591 284.881 133.598 284.881C122.385 284.881 115.268 277.325 115.268 266.844C115.268 256.362 122.385 248.807 133.598 248.807ZM253.191 248.807C262.356 248.807 268.742 253.73 269.327 260.36H260.698C260.064 257.533 257.383 255.436 253.239 255.436C246.268 255.437 242.904 260.409 242.953 266.844C242.904 273.23 246.805 278.008 252.947 278.008C257.627 278.008 260.698 276.009 261.868 271.914H255.774V265.966H273.228V271.914H270.01C268.255 280.055 262.209 284.881 252.752 284.881C241.832 284.881 234.666 277.276 234.715 266.99C234.715 257.045 241.394 248.807 253.191 248.807ZM294.318 248.807C305.774 248.807 312.551 257.143 312.551 266.844C312.551 276.545 305.774 284.881 294.318 284.881C282.862 284.881 276.086 276.545 276.086 266.844C276.086 257.142 282.862 248.807 294.318 248.807ZM101.6 283.906H93.2637L92.0938 279.763H80.0039L78.834 283.906H70.4971L82.0508 249.781H89.9971L101.6 283.906ZM182.294 283.906H173.958L172.788 279.763H160.698L159.528 283.906H151.191L162.745 249.781H170.691L182.294 283.906ZM206.082 256.801H196.674V283.906H188.825V256.801H179.465V249.781H206.082V256.801ZM230.489 256.119H217.522V263.87H230.489V270.061H217.522V277.568H230.489V283.906H209.625V249.781H230.489V256.119ZM331.65 249.781C338.768 249.781 343.887 254.949 343.887 262.115C343.887 267.087 341.4 271.134 337.5 273.084L343.496 283.906H334.526L329.164 274.449H325.021V283.906H317.123V249.781H331.65ZM294.318 255.875C287.786 255.875 284.275 260.896 284.324 266.844C284.276 272.791 287.786 277.812 294.318 277.812C300.802 277.812 304.312 272.791 304.312 266.844C304.312 260.896 300.802 255.875 294.318 255.875ZM81.7588 273.571H90.3389L86.0488 258.41L81.7588 273.571ZM162.453 273.571H171.033L166.743 258.41L162.453 273.571ZM358.018 259.874L354.408 269.127L343.404 249.781H352.569L358.018 259.874ZM325.021 268.014H330.432C333.6 268.013 335.891 265.527 335.892 262.115C335.892 258.703 333.6 256.216 330.432 256.216H325.021V268.014ZM22.5986 193.913C18.3592 197.118 15.9395 202.233 15.9395 208.344C15.9395 218.825 23.0571 226.381 34.2695 226.381C44.2632 226.381 50.7466 221.067 51.6729 213.023H43.2881C42.4106 216.875 39.1933 219.312 34.3184 219.312C27.8834 219.312 24.1778 215.022 24.1777 208.344C24.1777 202.49 27.0249 198.47 32.0615 197.567L42.5273 201.608C42.8638 202.237 43.1195 202.924 43.2881 203.664H47.8496L56.3096 206.931V225.406H64.208V211.853H69.0586L76.0049 214.535V224.658L0 242.469V185.187L22.5986 193.913ZM106.773 190.307C118.23 190.307 125.006 198.643 125.006 208.344C125.006 218.045 118.23 226.381 106.773 226.381C95.3172 226.381 88.5411 218.045 88.541 208.344C88.541 198.642 95.3172 190.307 106.773 190.307ZM146.05 190.307C157.506 190.307 164.282 198.643 164.282 208.344C164.282 218.045 157.506 226.381 146.05 226.381C134.594 226.381 127.817 218.045 127.817 208.344C127.817 198.642 134.594 190.307 146.05 190.307ZM179.009 190.307C186.516 190.307 191.488 194.548 191.488 201.129H183.591C183.591 197.96 181.934 196.205 178.862 196.205C176.279 196.205 174.768 197.521 174.768 199.568C174.768 201.47 176.084 202.64 179.447 204.005L185.103 206.247C189.831 208.1 191.977 211.269 191.977 215.852C191.976 222.238 187.003 226.381 179.447 226.381C171.062 226.381 166.041 221.896 166.041 214.242H173.938C173.938 217.947 176.035 220.142 179.496 220.142C182.421 220.142 184.079 218.776 184.079 216.388C184.079 214.291 183.006 213.219 179.935 212L173.792 209.611C169.21 207.905 166.87 204.736 166.87 200.3C166.87 194.304 171.599 190.307 179.009 190.307ZM83.9023 225.406H76.0049V224.658L83.9023 222.808V225.406ZM217.426 197.619H204.459V205.37H217.426V211.561H204.459V219.068H217.426V225.406H196.562V191.281H217.426V197.619ZM92.3203 220.836L83.9023 222.808V217.585L92.3203 220.836ZM106.773 197.375C100.241 197.375 96.7305 202.396 96.7793 208.344C96.7306 214.291 100.241 219.312 106.773 219.312C113.257 219.312 116.768 214.291 116.768 208.344C116.768 202.396 113.257 197.375 106.773 197.375ZM146.05 197.375C139.517 197.375 136.007 202.396 136.056 208.344C136.007 214.291 139.517 219.312 146.05 219.312C152.533 219.312 156.043 214.291 156.043 208.344C156.043 202.396 152.533 197.375 146.05 197.375ZM64.208 205.077H76.0049V191.281H83.9023V217.585L76.0049 214.535V211.853H69.0586L56.3096 206.931V191.281H64.208V205.077ZM34.2695 190.307C44.2632 190.307 50.7466 195.62 51.6729 203.664H47.8496L42.5273 201.608C41.1124 198.966 38.2567 197.375 34.3184 197.375C33.5239 197.375 32.771 197.44 32.0615 197.567L22.5986 193.913C25.6309 191.621 29.5939 190.307 34.2695 190.307Z" fill="black"/>
<path d="M258.375 345.148L390 177.875L308.953 385.672L258.375 345.148Z" fill="#FEBF4E"/>
<path d="M92.3203 220.836L0 242.469L27.7266 289.086L92.3203 220.836Z" fill="#FEBF4E"/>
<rect width="390" height="95" fill="#00A468"/>
</svg>
