<svg width="390" height="387" viewBox="0 0 390 387" fill="none" xmlns="http://www.w3.org/2000/svg">
<rect width="390" height="95" fill="#FEBF4E"/>
<rect y="95" width="390" height="291.281" fill="black"/>
<path fill-rule="evenodd" clip-rule="evenodd" d="M119.374 306.697C130.83 306.697 137.606 315.033 137.606 324.734C137.606 334.436 130.83 342.772 119.374 342.772C107.918 342.772 101.141 334.436 101.141 324.734C101.141 315.033 107.918 306.697 119.374 306.697ZM119.374 313.766C112.841 313.766 109.331 318.787 109.38 324.734C109.331 330.682 112.841 335.703 119.374 335.703C125.858 335.703 129.368 330.682 129.368 324.734C129.368 318.787 125.858 313.766 119.374 313.766Z" fill="black"/>
<path d="M272.533 306.697C281.698 306.697 288.084 311.621 288.669 318.251H280.04C279.406 315.423 276.725 313.327 272.581 313.327C265.61 313.327 262.246 318.299 262.295 324.734C262.246 331.121 266.146 335.898 272.289 335.898C276.969 335.898 280.04 333.899 281.21 329.805H275.116V323.857H292.569V329.805H289.351C287.596 337.946 281.551 342.772 272.094 342.772C261.174 342.772 254.008 335.167 254.056 324.881C254.056 314.936 260.735 306.697 272.533 306.697Z" fill="black"/>
<path d="M23.1825 329.756C23.1826 333.656 25.5225 335.849 29.0811 335.85C32.6885 335.85 34.9802 333.656 34.9802 329.756V307.672H42.8777V330.243C42.8777 338.189 37.4661 342.675 29.0811 342.675C20.6962 342.675 15.3338 338.189 15.3338 330.243V307.672H23.1825V329.756Z" fill="black"/>
<path d="M303.296 334.338C304.433 334.338 305.408 334.647 306.221 335.265C307.033 335.85 307.439 336.89 307.439 338.385C307.439 339.814 307.033 340.854 306.221 341.504C305.408 342.122 304.433 342.431 303.296 342.431C302.126 342.431 301.134 342.122 300.321 341.504C299.509 340.854 299.103 339.814 299.103 338.385C299.103 336.89 299.509 335.85 300.321 335.265C301.134 334.647 302.126 334.338 303.296 334.338Z" fill="black"/>
<path fill-rule="evenodd" clip-rule="evenodd" d="M63.2525 307.672C70.3699 307.672 75.4888 312.84 75.4888 320.006C75.4887 327.172 70.3211 332.34 63.2525 332.34H56.6226V341.797H48.7251V307.672H63.2525ZM56.6226 325.904H62.0337C65.2024 325.904 67.4936 323.418 67.4937 320.006C67.4937 316.593 65.2024 314.107 62.0337 314.107H56.6226V325.904Z" fill="black"/>
<path d="M87.0913 334.777H99.7662V341.797H79.1938V307.672H87.0913V334.777Z" fill="black"/>
<path fill-rule="evenodd" clip-rule="evenodd" d="M168.834 341.797H160.498L159.328 337.653H147.239L146.069 341.797H137.732L149.286 307.672H157.232L168.834 341.797ZM148.993 331.462H157.574L153.283 316.301L148.993 331.462Z" fill="black"/>
<path fill-rule="evenodd" clip-rule="evenodd" d="M185.517 307.672C196.485 307.672 202.921 315.521 202.921 324.734C202.921 333.948 196.534 341.797 185.517 341.797H172.647V307.672H185.517ZM180.545 335.167H184.786C191.513 335.167 194.779 330.146 194.779 324.734C194.779 319.323 191.513 314.302 184.786 314.302H180.545V335.167Z" fill="black"/>
<path d="M215.298 341.797H207.401V307.672H215.298V341.797Z" fill="black"/>
<path d="M241.859 329.756V307.672H249.415V341.797H241.323L229.477 319.713V341.797H221.921V307.672H230.013L241.859 329.756Z" fill="black"/>
<path d="M304.709 306.502C308.089 306.502 310.705 307.314 312.558 308.939C314.443 310.564 315.386 312.628 315.386 315.131C315.386 316.463 315.174 317.617 314.752 318.592C314.329 319.567 313.695 320.477 312.85 321.322C312.005 322.135 310.949 323.012 309.682 323.954C308.739 324.637 308.008 325.222 307.488 325.709C306.968 326.197 306.61 326.668 306.415 327.123C306.253 327.578 306.172 328.147 306.172 328.829V330.243H299.883V328.488C299.883 327.416 300.029 326.457 300.321 325.612C300.614 324.767 301.085 323.97 301.735 323.223C302.418 322.475 303.312 321.712 304.417 320.932C305.392 320.217 306.172 319.583 306.757 319.03C307.374 318.478 307.813 317.926 308.073 317.373C308.366 316.821 308.512 316.203 308.512 315.521C308.512 314.481 308.122 313.701 307.342 313.181C306.594 312.628 305.538 312.352 304.173 312.352C302.808 312.352 301.459 312.563 300.127 312.985C298.794 313.408 297.429 313.977 296.032 314.692L293.448 309.476C295.04 308.598 296.763 307.883 298.615 307.331C300.468 306.778 302.499 306.502 304.709 306.502Z" fill="black"/>
<path fill-rule="evenodd" clip-rule="evenodd" d="M323.276 248.197C334.733 248.197 341.509 256.533 341.509 266.234C341.509 275.936 334.733 284.272 323.276 284.272C311.82 284.272 305.044 275.936 305.044 266.234C305.044 256.533 311.82 248.197 323.276 248.197ZM323.276 255.266C316.744 255.266 313.234 260.287 313.283 266.234C313.234 272.182 316.744 277.203 323.276 277.203C329.76 277.203 333.27 272.182 333.27 266.234C333.27 260.287 329.76 255.266 323.276 255.266Z" fill="black"/>
<path d="M353.15 271.256C353.15 275.156 355.489 277.349 359.048 277.35C362.656 277.35 364.947 275.156 364.947 271.256V249.172H372.845V271.743C372.845 279.689 367.433 284.175 359.048 284.175C350.663 284.175 345.301 279.689 345.301 271.743V249.172H353.15V271.256Z" fill="black"/>
<path fill-rule="evenodd" clip-rule="evenodd" d="M204.54 283.297H196.204L195.034 279.153H182.944L181.774 283.297H173.437L184.991 249.172H192.937L204.54 283.297ZM184.699 272.962H193.279L188.989 257.801L184.699 272.962Z" fill="black"/>
<path fill-rule="evenodd" clip-rule="evenodd" d="M222.88 249.172C229.998 249.172 235.116 254.34 235.116 261.506C235.116 266.478 232.63 270.525 228.73 272.475L234.726 283.297H225.756L220.394 273.84H216.25V283.297H208.353V249.172H222.88ZM216.25 267.404H221.661C224.83 267.404 227.121 264.918 227.121 261.506C227.121 258.093 224.83 255.607 221.661 255.607H216.25V267.404Z" fill="black"/>
<path d="M260.924 255.51H247.957V263.261H260.924V269.452H247.957V276.959H260.924V283.297H240.059V249.172H260.924V255.51Z" fill="black"/>
<path d="M291.482 262.627L297.771 249.172H306.497L289.581 283.297H280.806L287.143 270.427L275.053 249.172H284.218L291.482 262.627Z" fill="black"/>
<path d="M29.8856 213.341L36.662 190.672H42.8045L49.5808 213.341L56.6981 190.672H64.9854L52.9443 224.797H46.5096L39.7332 203.347L32.9569 224.797H26.5216L14.4805 190.672H22.7683L29.8856 213.341Z" fill="black"/>
<path d="M76.0654 204.468H87.8625V190.672H95.76V224.797H87.8625V211.244H76.0654V224.797H68.168V190.672H76.0654V204.468Z" fill="black"/>
<path fill-rule="evenodd" clip-rule="evenodd" d="M130.672 224.797H122.336L121.166 220.653H109.076L107.906 224.797H99.5698L111.124 190.672H119.07L130.672 224.797ZM110.831 214.462H119.411L115.121 199.301L110.831 214.462Z" fill="black"/>
<path d="M154.461 197.692H145.052V224.797H137.203V197.692H127.843V190.672H154.461V197.692Z" fill="black"/>
<path fill-rule="evenodd" clip-rule="evenodd" d="M119.374 306.697C130.83 306.697 137.606 315.033 137.606 324.734C137.606 334.436 130.83 342.772 119.374 342.772C107.918 342.772 101.141 334.436 101.141 324.734C101.141 315.033 107.918 306.697 119.374 306.697ZM119.374 313.766C112.841 313.766 109.331 318.787 109.38 324.734C109.331 330.682 112.841 335.703 119.374 335.703C125.858 335.703 129.368 330.682 129.368 324.734C129.368 318.787 125.858 313.766 119.374 313.766Z" fill="white"/>
<path d="M272.533 306.697C281.698 306.697 288.084 311.621 288.669 318.251H280.04C279.406 315.423 276.725 313.327 272.581 313.327C265.61 313.327 262.246 318.299 262.295 324.734C262.246 331.121 266.146 335.898 272.289 335.898C276.969 335.898 280.04 333.899 281.21 329.805H275.116V323.857H292.569V329.805H289.351C287.596 337.946 281.551 342.772 272.094 342.772C261.174 342.772 254.008 335.167 254.056 324.881C254.056 314.936 260.735 306.697 272.533 306.697Z" fill="white"/>
<path d="M23.1825 329.756C23.1826 333.656 25.5225 335.849 29.0811 335.85C32.6885 335.85 34.9802 333.656 34.9802 329.756V307.672H42.8777V330.243C42.8777 338.189 37.4661 342.675 29.0811 342.675C20.6962 342.675 15.3338 338.189 15.3338 330.243V307.672H23.1825V329.756Z" fill="white"/>
<path d="M303.296 334.338C304.433 334.338 305.408 334.647 306.221 335.265C307.033 335.85 307.439 336.89 307.439 338.385C307.439 339.814 307.033 340.854 306.221 341.504C305.408 342.122 304.433 342.431 303.296 342.431C302.126 342.431 301.134 342.122 300.321 341.504C299.509 340.854 299.103 339.814 299.103 338.385C299.103 336.89 299.509 335.85 300.321 335.265C301.134 334.647 302.126 334.338 303.296 334.338Z" fill="white"/>
<path fill-rule="evenodd" clip-rule="evenodd" d="M63.2525 307.672C70.3699 307.672 75.4888 312.84 75.4888 320.006C75.4887 327.172 70.3211 332.34 63.2525 332.34H56.6226V341.797H48.7251V307.672H63.2525ZM56.6226 325.904H62.0337C65.2024 325.904 67.4936 323.418 67.4937 320.006C67.4937 316.593 65.2024 314.107 62.0337 314.107H56.6226V325.904Z" fill="white"/>
<path d="M87.0913 334.777H99.7662V341.797H79.1938V307.672H87.0913V334.777Z" fill="white"/>
<path fill-rule="evenodd" clip-rule="evenodd" d="M168.834 341.797H160.498L159.328 337.653H147.239L146.069 341.797H137.732L149.286 307.672H157.232L168.834 341.797ZM148.993 331.462H157.574L153.283 316.301L148.993 331.462Z" fill="white"/>
<path fill-rule="evenodd" clip-rule="evenodd" d="M185.517 307.672C196.485 307.672 202.921 315.521 202.921 324.734C202.921 333.948 196.534 341.797 185.517 341.797H172.647V307.672H185.517ZM180.545 335.167H184.786C191.513 335.167 194.779 330.146 194.779 324.734C194.779 319.323 191.513 314.302 184.786 314.302H180.545V335.167Z" fill="white"/>
<path d="M215.298 341.797H207.401V307.672H215.298V341.797Z" fill="white"/>
<path d="M241.859 329.756V307.672H249.415V341.797H241.323L229.477 319.713V341.797H221.921V307.672H230.013L241.859 329.756Z" fill="white"/>
<path d="M304.709 306.502C308.089 306.502 310.705 307.314 312.558 308.939C314.443 310.564 315.386 312.628 315.386 315.131C315.386 316.463 315.174 317.617 314.752 318.592C314.329 319.567 313.695 320.477 312.85 321.322C312.005 322.135 310.949 323.012 309.682 323.954C308.739 324.637 308.008 325.222 307.488 325.709C306.968 326.197 306.61 326.668 306.415 327.123C306.253 327.578 306.172 328.147 306.172 328.829V330.243H299.883V328.488C299.883 327.416 300.029 326.457 300.321 325.612C300.614 324.767 301.085 323.97 301.735 323.223C302.418 322.475 303.312 321.712 304.417 320.932C305.392 320.217 306.172 319.583 306.757 319.03C307.374 318.478 307.813 317.926 308.073 317.373C308.366 316.821 308.512 316.203 308.512 315.521C308.512 314.481 308.122 313.701 307.342 313.181C306.594 312.628 305.538 312.352 304.173 312.352C302.808 312.352 301.459 312.563 300.127 312.985C298.794 313.408 297.429 313.977 296.032 314.692L293.448 309.476C295.04 308.598 296.763 307.883 298.615 307.331C300.468 306.778 302.499 306.502 304.709 306.502Z" fill="white"/>
<path fill-rule="evenodd" clip-rule="evenodd" d="M323.276 248.197C334.733 248.197 341.509 256.533 341.509 266.234C341.509 275.936 334.733 284.272 323.276 284.272C311.82 284.272 305.044 275.936 305.044 266.234C305.044 256.533 311.82 248.197 323.276 248.197ZM323.276 255.266C316.744 255.266 313.234 260.287 313.283 266.234C313.234 272.182 316.744 277.203 323.276 277.203C329.76 277.203 333.27 272.182 333.27 266.234C333.27 260.287 329.76 255.266 323.276 255.266Z" fill="white"/>
<path d="M353.15 271.256C353.15 275.156 355.489 277.349 359.048 277.35C362.656 277.35 364.947 275.156 364.947 271.256V249.172H372.845V271.743C372.845 279.689 367.433 284.175 359.048 284.175C350.663 284.175 345.301 279.689 345.301 271.743V249.172H353.15V271.256Z" fill="white"/>
<path fill-rule="evenodd" clip-rule="evenodd" d="M204.54 283.297H196.204L195.034 279.153H182.944L181.774 283.297H173.437L184.991 249.172H192.937L204.54 283.297ZM184.699 272.962H193.279L188.989 257.801L184.699 272.962Z" fill="white"/>
<path fill-rule="evenodd" clip-rule="evenodd" d="M222.88 249.172C229.998 249.172 235.116 254.34 235.116 261.506C235.116 266.478 232.63 270.525 228.73 272.475L234.726 283.297H225.756L220.394 273.84H216.25V283.297H208.353V249.172H222.88ZM216.25 267.404H221.661C224.83 267.404 227.121 264.918 227.121 261.506C227.121 258.093 224.83 255.607 221.661 255.607H216.25V267.404Z" fill="white"/>
<path d="M260.924 255.51H247.957V263.261H260.924V269.452H247.957V276.959H260.924V283.297H240.059V249.172H260.924V255.51Z" fill="white"/>
<path d="M291.482 262.627L297.771 249.172H306.497L289.581 283.297H280.806L287.143 270.427L275.053 249.172H284.218L291.482 262.627Z" fill="white"/>
<path d="M29.8856 213.341L36.662 190.672H42.8045L49.5808 213.341L56.6981 190.672H64.9854L52.9443 224.797H46.5096L39.7332 203.347L32.9569 224.797H26.5216L14.4805 190.672H22.7683L29.8856 213.341Z" fill="white"/>
<path d="M76.0654 204.468H87.8625V190.672H95.76V224.797H87.8625V211.244H76.0654V224.797H68.168V190.672H76.0654V204.468Z" fill="white"/>
<path fill-rule="evenodd" clip-rule="evenodd" d="M130.672 224.797H122.336L121.166 220.653H109.076L107.906 224.797H99.5698L111.124 190.672H119.07L130.672 224.797ZM110.831 214.462H119.411L115.121 199.301L110.831 214.462Z" fill="white"/>
<path d="M154.461 197.692H145.052V224.797H137.203V197.692H127.843V190.672H154.461V197.692Z" fill="white"/>
<path d="M390 256.18L305.602 289.391L390 300.969V386.281H50.2734L0 258.008V95H390V256.18Z" fill="#FEBF4E"/>
<path d="M19.4648 307.672H15.334V330.243C15.334 338.189 20.6962 342.675 29.0811 342.675C30.4868 342.675 31.8081 342.544 33.0352 342.297L50.2734 386.281H0V258.008L19.4648 307.672ZM119.374 306.697C130.83 306.697 137.606 315.033 137.606 324.734C137.606 334.436 130.83 342.771 119.374 342.771C107.918 342.771 101.142 334.436 101.142 324.734C101.142 315.033 107.918 306.697 119.374 306.697ZM272.533 306.697C281.698 306.697 288.084 311.621 288.669 318.251H280.04C279.406 315.423 276.725 313.327 272.581 313.327C265.61 313.327 262.246 318.299 262.295 324.734C262.246 331.121 266.147 335.898 272.289 335.898C276.969 335.898 280.04 333.899 281.21 329.805H275.116V323.856H292.569V329.805H289.352C287.596 337.946 281.551 342.771 272.094 342.771C261.174 342.771 254.008 335.167 254.057 324.881C254.057 314.936 260.736 306.697 272.533 306.697ZM303.296 334.338C304.433 334.338 305.408 334.647 306.221 335.265C307.033 335.85 307.439 336.89 307.439 338.385C307.439 339.814 307.033 340.854 306.221 341.504C305.408 342.121 304.433 342.431 303.296 342.431C302.126 342.431 301.134 342.121 300.321 341.504C299.509 340.854 299.103 339.814 299.103 338.385C299.103 336.89 299.509 335.85 300.321 335.265C301.134 334.647 302.126 334.338 303.296 334.338ZM42.8779 330.243C42.8779 336.857 39.1276 341.069 33.0352 342.297L30.4609 335.73C33.2625 335.228 34.9804 333.132 34.9805 329.756V307.672H42.8779V330.243ZM63.2529 307.672C70.3701 307.672 75.4893 312.84 75.4893 320.006C75.4891 327.172 70.3213 332.34 63.2529 332.34H56.623V341.797H48.7246V307.672H63.2529ZM87.0918 334.777H99.7666V341.797H79.1934V307.672H87.0918V334.777ZM168.834 341.797H160.498L159.328 337.653H147.238L146.068 341.797H137.731L149.286 307.672H157.231L168.834 341.797ZM185.517 307.672C196.485 307.672 202.921 315.521 202.921 324.734C202.921 333.948 196.534 341.797 185.517 341.797H172.647V307.672H185.517ZM215.298 341.797H207.4V307.672H215.298V341.797ZM241.859 329.756V307.672H249.415V341.797H241.323L229.477 319.713V341.797H221.921V307.672H230.013L241.859 329.756ZM30.4609 335.73C30.0262 335.808 29.5656 335.85 29.0811 335.85C25.5225 335.85 23.1827 333.656 23.1826 329.756V317.158L30.4609 335.73ZM119.374 313.766C112.842 313.766 109.331 318.787 109.38 324.734C109.331 330.682 112.842 335.703 119.374 335.703C125.858 335.703 129.368 330.682 129.368 324.734C129.368 318.787 125.858 313.766 119.374 313.766ZM180.545 335.167H184.786C191.513 335.167 194.779 330.145 194.779 324.734C194.779 319.323 191.513 314.302 184.786 314.302H180.545V335.167ZM148.993 331.462H157.573L153.283 316.301L148.993 331.462ZM304.709 306.502C308.089 306.502 310.705 307.314 312.558 308.939C314.443 310.564 315.386 312.628 315.386 315.131C315.386 316.463 315.174 317.617 314.752 318.592C314.329 319.567 313.696 320.477 312.851 321.322C312.006 322.135 310.949 323.012 309.682 323.954C308.739 324.636 308.008 325.222 307.488 325.709C306.968 326.196 306.61 326.668 306.415 327.123C306.253 327.578 306.172 328.147 306.172 328.829V330.243H299.883V328.488C299.883 327.416 300.029 326.457 300.321 325.612C300.614 324.767 301.085 323.97 301.735 323.223C302.418 322.475 303.312 321.712 304.417 320.932C305.392 320.217 306.172 319.583 306.757 319.03C307.374 318.478 307.813 317.925 308.073 317.373C308.366 316.821 308.512 316.203 308.512 315.52C308.512 314.481 308.122 313.701 307.342 313.181C306.594 312.628 305.538 312.352 304.173 312.352C302.808 312.352 301.459 312.563 300.127 312.985C298.795 313.408 297.43 313.977 296.032 314.691L293.448 309.476C295.041 308.598 296.763 307.883 298.615 307.331C300.468 306.779 302.499 306.502 304.709 306.502ZM56.623 325.904H62.0342C65.2025 325.904 67.494 323.418 67.4941 320.006C67.4941 316.594 65.2026 314.107 62.0342 314.106H56.623V325.904ZM23.1826 317.158L19.4648 307.672H23.1826V317.158ZM390 300.969L305.602 289.391L319.454 283.939C320.662 284.156 321.937 284.271 323.276 284.271C330.345 284.271 335.63 281.097 338.643 276.388L345.42 273.722C346.249 280.43 351.386 284.175 359.048 284.175C367.433 284.175 372.845 279.689 372.845 271.743V262.93L390 256.18V300.969ZM323.276 248.197C334.733 248.197 341.509 256.533 341.509 266.234C341.509 269.95 340.513 273.464 338.643 276.388L319.454 283.939C310.329 282.302 305.044 274.801 305.044 266.234C305.044 256.533 311.82 248.197 323.276 248.197ZM204.54 283.297H196.204L195.034 279.153H182.944L181.774 283.297H173.438L184.991 249.172H192.938L204.54 283.297ZM222.88 249.172C229.997 249.172 235.116 254.34 235.116 261.506C235.116 266.478 232.629 270.525 228.729 272.475L234.727 283.297H225.756L220.394 273.84H216.25V283.297H208.353V249.172H222.88ZM260.924 255.51H247.957V263.261H260.924V269.452H247.957V276.959H260.924V283.297H240.06V249.172H260.924V255.51ZM291.481 262.627L297.771 249.172H306.497L289.58 283.297H280.806L287.143 270.427L275.053 249.172H284.218L291.481 262.627ZM364.947 271.256C364.947 275.156 362.655 277.35 359.048 277.35C355.489 277.349 353.15 275.156 353.149 271.256V270.68L364.947 266.037V271.256ZM323.276 255.266C316.744 255.266 313.233 260.287 313.282 266.234C313.233 272.182 316.744 277.203 323.276 277.203C329.76 277.203 333.271 272.182 333.271 266.234C333.271 260.287 329.76 255.266 323.276 255.266ZM353.149 270.68L345.42 273.722C345.342 273.088 345.301 272.429 345.301 271.743V249.172H353.149V270.68ZM184.699 272.962H193.279L188.989 257.801L184.699 272.962ZM216.25 267.404H221.661C224.83 267.404 227.121 264.918 227.121 261.506C227.121 258.093 224.83 255.607 221.661 255.606H216.25V267.404ZM372.845 262.93L364.947 266.037V249.172H372.845V262.93ZM29.8857 213.341L36.6621 190.672H42.8047L49.5811 213.341L56.6982 190.672H64.9854L52.9443 224.797H46.5098L39.7334 203.347L32.957 224.797H26.5215L14.4805 190.672H22.7686L29.8857 213.341ZM76.0654 204.468H87.8623V190.672H95.7598V224.797H87.8623V211.244H76.0654V224.797H68.168V190.672H76.0654V204.468ZM130.672 224.797H122.336L121.166 220.653H109.076L107.906 224.797H99.5693L111.124 190.672H119.069L130.672 224.797ZM154.461 197.691H145.052V224.797H137.203V197.691H127.844V190.672H154.461V197.691ZM110.831 214.462H119.411L115.121 199.301L110.831 214.462Z" fill="black"/>
<path d="M50.2734 386.281L0 258.008L69.1641 359.164L50.2734 386.281Z" fill="#00A468"/>
<path d="M305.602 289.391L390 300.969L380.859 329L305.602 289.391Z" fill="#00A468"/>
</svg>
