<svg width="64" height="64" viewBox="0 0 64 64" fill="none" xmlns="http://www.w3.org/2000/svg">
<path d="M64.0018 18.2611L63.9987 27.3769L35.7527 33.2419L35.7545 27.9857L64.0018 18.2611Z" fill="black"/>
<path d="M63.9917 46.0989L63.9947 36.9832L35.7527 31.0999L35.7509 36.3561L63.9917 46.0989Z" fill="black"/>
<path d="M17.8361 0.221104L26.9643 0.149401L33.0691 28.3068L27.8057 28.3481L17.8361 0.221104Z" fill="black"/>
<path d="M45.7116 0.00155179L36.5834 0.0732454L30.9236 28.323L36.187 28.2817L45.7116 0.00155179Z" fill="black"/>
<path d="M46.2554 63.9015L37.1269 63.9337L31.1443 35.7502L36.4078 35.7317L46.2554 63.9015Z" fill="black"/>
<path d="M18.3791 63.9993L27.5075 63.9671L33.2898 35.7421L28.0262 35.7606L18.3791 63.9993Z" fill="black"/>
<path d="M0.271222 46.3605L0.183011 37.2452L28.3689 31.0984L28.4198 36.3543L0.271222 46.3605Z" fill="black"/>
<path d="M0.00360128 18.5241L0.0918014 27.6394L28.3914 33.2405L28.3405 27.9845L0.00360128 18.5241Z" fill="black"/>
<rect x="28.2449" y="28.2043" width="8.38496" height="8.3732" fill="black"/>
</svg>
