<svg width="216" height="64" viewBox="0 0 216 64" fill="none" xmlns="http://www.w3.org/2000/svg">
<path d="M40.656 30.816C40.656 32.288 40.48 33.744 40.128 35.184C39.776 36.624 39.232 37.936 38.496 39.12C37.792 40.304 36.896 41.248 35.808 41.952C34.72 42.624 33.44 42.96 31.968 42.96C30.784 42.96 29.744 42.688 28.848 42.144C27.952 41.568 27.328 40.832 26.976 39.936H26.592C25.952 40.736 25.088 41.44 24 42.048C22.944 42.656 21.664 42.96 20.16 42.96C17.312 42.96 15.104 42.112 13.536 40.416C12 38.688 11.232 36.432 11.232 33.648C11.232 31.504 11.696 29.616 12.624 27.984C13.552 26.32 14.864 25.024 16.56 24.096C18.256 23.136 20.256 22.656 22.56 22.656C24.064 22.656 25.616 22.8 27.216 23.088C28.848 23.344 30.112 23.632 31.008 23.952L30.528 33.792C30.496 34.112 30.48 34.448 30.48 34.8C30.48 35.12 30.48 35.328 30.48 35.424C30.48 36.736 30.656 37.616 31.008 38.064C31.392 38.48 31.808 38.688 32.256 38.688C32.992 38.688 33.6 38.336 34.08 37.632C34.56 36.896 34.912 35.936 35.136 34.752C35.392 33.536 35.52 32.208 35.52 30.768C35.52 28.08 34.976 25.808 33.888 23.952C32.8 22.064 31.312 20.624 29.424 19.632C27.568 18.64 25.44 18.144 23.04 18.144C20.512 18.144 18.288 18.544 16.368 19.344C14.448 20.144 12.832 21.264 11.52 22.704C10.208 24.144 9.216 25.84 8.544 27.792C7.904 29.744 7.584 31.872 7.584 34.176C7.584 37.056 8.096 39.504 9.12 41.52C10.176 43.504 11.696 45.008 13.68 46.032C15.696 47.056 18.16 47.568 21.072 47.568C22.928 47.568 24.864 47.36 26.88 46.944C28.896 46.528 30.736 46.016 32.4 45.408V49.92C30.864 50.56 29.152 51.072 27.264 51.456C25.376 51.84 23.376 52.032 21.264 52.032C17.296 52.032 13.904 51.328 11.088 49.92C8.272 48.512 6.112 46.496 4.608 43.872C3.136 41.216 2.4 38.032 2.4 34.32C2.4 31.408 2.88 28.704 3.84 26.208C4.8 23.712 6.176 21.536 7.968 19.68C9.792 17.792 11.968 16.336 14.496 15.312C17.024 14.256 19.856 13.728 22.992 13.728C25.552 13.728 27.904 14.128 30.048 14.928C32.224 15.696 34.096 16.832 35.664 18.336C37.264 19.808 38.496 21.6 39.36 23.712C40.224 25.792 40.656 28.16 40.656 30.816ZM16.656 33.744C16.656 35.504 17.024 36.768 17.76 37.536C18.496 38.304 19.472 38.688 20.688 38.688C22.288 38.688 23.408 38.112 24.048 36.96C24.72 35.776 25.12 34.24 25.248 32.352L25.536 27.168C25.184 27.104 24.784 27.056 24.336 27.024C23.888 26.96 23.392 26.928 22.848 26.928C21.344 26.928 20.128 27.264 19.2 27.936C18.304 28.576 17.648 29.424 17.232 30.48C16.848 31.504 16.656 32.592 16.656 33.744Z" fill="black"/>
<mask id="mask0_769_611" style="mask-type:luminance" maskUnits="userSpaceOnUse" x="48" y="9" width="168" height="46">
<path d="M48 55H216V9H48V55Z" fill="white"/>
</mask>
<g mask="url(#mask0_769_611)">
<path d="M213.231 48.6839L216 45.615H214.108L211.682 48.4364V42.3947H210.202V52.0279H211.682V49.0964L214.04 52.0279H216L213.231 48.6839ZM208.789 43.5782C208.794 43.4307 208.768 43.2839 208.713 43.1467C208.659 43.0096 208.577 42.8851 208.473 42.7807C208.369 42.6764 208.245 42.5944 208.109 42.5398C207.972 42.4853 207.826 42.4593 207.679 42.4634C207.532 42.4593 207.386 42.4853 207.249 42.5398C207.113 42.5944 206.989 42.6764 206.885 42.7807C206.781 42.8851 206.699 43.0096 206.645 43.1467C206.59 43.2839 206.564 43.4307 206.569 43.5782C206.564 43.7257 206.59 43.8725 206.645 44.0096C206.699 44.1467 206.781 44.2713 206.885 44.3756C206.989 44.48 207.113 44.562 207.249 44.6165C207.386 44.6711 207.532 44.6971 207.679 44.693C207.826 44.6971 207.972 44.6711 208.109 44.6165C208.245 44.562 208.369 44.48 208.473 44.3756C208.577 44.2713 208.659 44.1467 208.713 44.0096C208.768 43.8725 208.794 43.7257 208.789 43.5782ZM206.35 53.5831C206.161 53.5859 205.972 53.5675 205.787 53.528V54.863C206.065 54.9768 206.365 55.024 206.665 55.0008C207.802 55.0008 208.419 54.4215 208.419 53.3633V45.6154H206.925V52.923C206.925 53.3782 206.747 53.5851 206.348 53.5851M205.472 43.5782C205.476 43.4307 205.45 43.2839 205.396 43.1467C205.342 43.0096 205.26 42.8851 205.156 42.7807C205.052 42.6764 204.928 42.5944 204.791 42.5398C204.655 42.4853 204.509 42.4593 204.362 42.4634C204.215 42.4593 204.069 42.4853 203.932 42.5398C203.795 42.5944 203.671 42.6764 203.567 42.7807C203.463 42.8851 203.382 43.0096 203.327 43.1467C203.273 43.2839 203.247 43.4307 203.251 43.5782C203.247 43.7257 203.273 43.8725 203.327 44.0096C203.382 44.1467 203.463 44.2713 203.567 44.3756C203.671 44.48 203.795 44.562 203.932 44.6165C204.069 44.6711 204.215 44.6971 204.362 44.693C204.509 44.6971 204.655 44.6711 204.791 44.6165C204.928 44.562 205.052 44.48 205.156 44.3756C205.26 44.2713 205.342 44.1467 205.396 44.0096C205.45 43.8725 205.476 43.7257 205.472 43.5782ZM201.936 46.9363C202.132 46.9317 202.329 46.9408 202.525 46.9636V45.5877C202.331 45.5456 202.133 45.5271 201.936 45.5326C201.545 45.5266 201.164 45.6541 200.855 45.8942C200.546 46.1343 200.328 46.4728 200.236 46.854V45.6154H198.741V52.0296H200.236V49.1945C200.236 47.7358 200.88 46.9376 201.936 46.9376M196.397 52.1103C196.769 52.1114 197.14 52.0837 197.507 52.0275V50.7062C197.258 50.7413 197.006 50.7597 196.753 50.7612C196.164 50.7612 195.821 50.6234 195.821 49.509V46.8668H197.288V45.6146H195.821V43.6742H194.327V45.6146H193.244V46.8668H194.327V49.8533C194.327 52.0139 195.671 52.1103 196.397 52.1103ZM191.902 46.9376C192.098 46.9329 192.295 46.9421 192.491 46.9649V45.5889C192.297 45.5468 192.1 45.5283 191.902 45.5339C191.511 45.5278 191.13 45.6553 190.821 45.8955C190.512 46.1356 190.294 46.474 190.202 46.8552V45.6167H188.707V52.0308H190.202V49.1958C190.202 47.7371 190.846 46.9388 191.902 46.9388M187.405 48.8242C187.428 48.3743 187.355 47.9248 187.194 47.5047C187.032 47.0846 186.784 46.7032 186.466 46.3854C186.148 46.0675 185.767 45.8203 185.348 45.6595C184.929 45.4988 184.481 45.4282 184.033 45.4524C183.585 45.4283 183.137 45.4989 182.718 45.6597C182.299 45.8204 181.918 46.0677 181.6 46.3855C181.282 46.7034 181.035 47.0847 180.873 47.5047C180.711 47.9248 180.639 48.3743 180.661 48.8242C180.639 49.274 180.711 49.7235 180.873 50.1436C181.035 50.5636 181.282 50.9449 181.6 51.2628C181.918 51.5806 182.299 51.8279 182.718 51.9886C183.137 52.1494 183.585 52.22 184.033 52.1959C184.481 52.2201 184.929 52.1495 185.348 51.9888C185.767 51.828 186.148 51.5808 186.466 51.2629C186.784 50.9451 187.032 50.5638 187.194 50.1436C187.355 49.7235 187.428 49.274 187.405 48.8242ZM185.911 48.8242C185.911 49.994 185.24 50.861 184.033 50.861C182.827 50.861 182.155 49.992 182.155 48.8242C182.155 47.6564 182.827 46.7873 184.033 46.7873C185.24 46.7873 185.911 47.6564 185.911 48.8242ZM176.59 47.1453L180.716 42.3976H178.728L175.15 46.7464V42.3976H173.574V52.0308H175.15V47.7068L178.714 52.0279H180.715L176.59 47.1453ZM161.05 38.285L173.576 9.00287H161.614L156.368 31.2998L150.958 9.00287H139.134L151.66 38.2772V52.0536H161.05V38.285ZM140.045 21.6723C140.045 18.3123 138.715 15.0899 136.349 12.714C133.982 10.3381 130.772 9.00328 127.426 9.00328H116.507V52.054H130.055C131.712 52.0541 133.353 51.7264 134.884 51.0898C136.415 50.4531 137.807 49.5199 138.978 48.3435C140.15 47.167 141.08 45.7704 141.714 44.2333C142.348 42.6962 142.675 41.0487 142.675 39.385C142.675 37.4063 142.213 35.4551 141.325 33.6885C140.438 31.922 139.149 30.3894 137.563 29.2142C139.179 27.0346 140.049 24.3894 140.045 21.6727M131.993 21.6727C131.993 22.8401 131.531 23.9596 130.709 24.785C129.887 25.6104 128.772 26.0741 127.609 26.0741H124.563V17.2709H127.609C128.772 17.2709 129.887 17.7347 130.709 18.5601C131.531 19.3855 131.993 20.505 131.993 21.6723M134.436 39.3792C134.436 39.9572 134.322 40.5295 134.102 41.0635C133.882 41.5975 133.559 42.0827 133.152 42.4914C132.745 42.9001 132.261 43.2243 131.729 43.4455C131.198 43.6667 130.627 43.7805 130.052 43.7805H124.559V34.9737H130.048C131.211 34.9738 132.326 35.4375 133.148 36.2629C133.97 37.0883 134.432 38.2078 134.432 39.375M108.478 29.2096C110.093 27.03 110.964 24.3848 110.96 21.6682C110.96 18.3081 109.63 15.0857 107.264 12.7098C104.897 10.3339 101.687 8.99915 98.3405 8.99915H87.422V52.0499H100.97C104.317 52.0499 107.527 50.7151 109.893 48.3392C112.26 45.9633 113.59 42.7409 113.59 39.3808C113.59 37.4022 113.128 35.451 112.24 33.6844C111.352 31.9179 110.064 30.3853 108.478 29.21M102.908 21.6686C102.908 22.8359 102.446 23.9554 101.624 24.7808C100.802 25.6062 99.6867 26.07 98.5239 26.07H95.4774V17.2668H98.5239C99.6867 17.2668 100.802 17.7305 101.624 18.5559C102.446 19.3814 102.908 20.5009 102.908 21.6682M105.351 39.375C105.351 40.5423 104.889 41.6619 104.067 42.4873C103.244 43.3127 102.129 43.7764 100.967 43.7764H95.4774V34.9737H100.967C102.129 34.9737 103.244 35.4374 104.067 36.2628C104.889 37.0882 105.351 38.2077 105.351 39.375ZM73.2822 52.0499H85.5708L72.426 8.99915L61.1353 9.01611L47.9971 52.0499H60.2866L66.784 16.949L73.2822 52.0499ZM205.101 45.6137H203.621V52.0279H205.101V45.6137Z" fill="black"/>
</g>
</svg>
