<svg width="32" height="46" viewBox="0 0 32 46" fill="none" xmlns="http://www.w3.org/2000/svg">
<path d="M15.9573 18.28C14.3573 18.28 13.0773 16.96 13.0773 15.36C13.0773 13.76 14.3573 12.44 15.9573 12.44C17.5973 12.44 18.9173 13.76 18.9173 15.36C18.9173 16.96 17.5973 18.28 15.9573 18.28ZM15.9573 28.28C14.3573 28.28 13.0773 26.96 13.0773 25.36C13.0773 23.76 14.3573 22.44 15.9573 22.44C17.5973 22.44 18.9173 23.76 18.9173 25.36C18.9173 26.96 17.5973 28.28 15.9573 28.28ZM15.9573 38.28C14.3573 38.28 13.0773 36.96 13.0773 35.36C13.0773 33.76 14.3573 32.44 15.9573 32.44C17.5973 32.44 18.9173 33.76 18.9173 35.36C18.9173 36.96 17.5973 38.28 15.9573 38.28Z" fill="black"/>
</svg>
